<svg width="56" height="56" viewBox="0 0 56 56" fill="none" xmlns="http://www.w3.org/2000/svg">
<rect width="56" height="56" fill="#F2F2F2"/>
<g id="Desktop" clip-path="url(#clip0_0_1)">
<rect width="1440" height="5518" transform="translate(-280 -1620)" fill="white"/>
<g id="DIAGRAM">
<g id="Group 17">
<g id="Group 19">
<g id="Group 18">
<path id="Fill 184" fill-rule="evenodd" clip-rule="evenodd" d="M27.4155 9.33329C25.6888 9.33329 24.2842 10.7391 24.2842 12.4646V13.2241C24.2842 14.9496 25.6877 16.3555 27.4143 16.3555C27.4155 16.3555 27.4155 16.3555 27.4155 16.3555C28.252 16.3555 29.0372 16.03 29.6287 15.4385C30.2202 14.847 30.5468 14.0606 30.5468 13.2241V12.4658C30.5468 11.6293 30.2213 10.843 29.6298 10.2515C29.0383 9.65996 28.252 9.33329 27.4155 9.33329ZM27.4155 17.5221H27.4143C25.0448 17.5221 23.1175 15.5936 23.1175 13.2241V12.4646C23.1175 10.0951 25.046 8.16663 27.4155 8.16663C28.5635 8.16779 29.6438 8.61463 30.4547 9.42663C31.2667 10.2386 31.7135 11.3178 31.7135 12.4658V13.2241C31.7135 14.3721 31.2655 15.4513 30.4535 16.2633C29.6427 17.0753 28.5635 17.5221 27.4155 17.5221Z" fill="url(#paint0_linear_0_1)"/>
<path id="Fill 185" fill-rule="evenodd" clip-rule="evenodd" d="M23.9248 48.7585H22.7582L22.7605 24.843H23.9272L23.9248 48.7585Z" fill="url(#paint1_linear_0_1)"/>
<path id="Fill 186" fill-rule="evenodd" clip-rule="evenodd" d="M32.067 48.7585H30.9003L30.9027 24.843H32.0693L32.067 48.7585Z" fill="url(#paint2_linear_0_1)"/>
<path id="Fill 187" fill-rule="evenodd" clip-rule="evenodd" d="M27.9965 48.7585H26.8287L26.8298 33.6898H27.9965V48.7585Z" fill="url(#paint3_linear_0_1)"/>
<path id="Fill 188" fill-rule="evenodd" clip-rule="evenodd" d="M33.5335 34.2731H31.486V33.1064H33.5335C33.957 33.1064 34.3023 32.7611 34.3023 32.3376V22.9797C34.3035 21.7547 33.5218 20.6721 32.3587 20.2859C29.1713 19.2277 25.6608 19.2289 22.4723 20.2847C21.308 20.6709 20.5275 21.7524 20.5275 22.9786L20.5263 32.3364C20.5263 32.7599 20.8705 33.1041 21.2952 33.1052H23.3427V34.2719H21.294C20.2265 34.2707 19.3597 33.4027 19.3597 32.3352L19.3608 22.9786C19.3608 21.2496 20.4633 19.7224 22.1048 19.1776C25.5302 18.0424 29.302 18.0436 32.7262 19.1787C34.3677 19.7236 35.4702 21.2507 35.469 22.9797V32.3376C35.469 33.4051 34.601 34.2731 33.5335 34.2731Z" fill="url(#paint4_linear_0_1)"/>
<path id="Fill 189" fill-rule="evenodd" clip-rule="evenodd" d="M42.1073 11.9256C40.3807 11.9256 38.976 13.3291 38.976 15.0557V15.8152C38.976 16.6506 39.3015 17.4381 39.893 18.0296C40.4845 18.6199 41.2708 18.9466 42.1073 18.9466C43.834 18.9466 45.2387 17.5419 45.2387 15.8152V15.0569C45.2387 13.3302 43.834 11.9256 42.1073 11.9256ZM42.1073 20.1132C40.9582 20.1132 39.879 19.6652 39.0682 18.8544C38.2562 18.0424 37.8093 16.9632 37.8093 15.8152V15.0557C37.8093 12.6862 39.7378 10.7589 42.1073 10.7589C44.4768 10.7589 46.4053 12.6862 46.4053 15.0569V15.8152C46.4053 18.1847 44.4768 20.1132 42.1073 20.1132Z" fill="url(#paint5_linear_0_1)"/>
<path id="Fill 190" fill-rule="evenodd" clip-rule="evenodd" d="M12.7225 11.9222C11.8872 11.9222 11.1008 12.2477 10.5093 12.8392C9.91783 13.4307 9.59233 14.217 9.59233 15.0535V15.8118C9.59233 17.5385 10.997 18.9432 12.7225 18.9432C14.4492 18.9432 15.8538 17.5385 15.855 15.813V15.0535C15.855 13.3268 14.4503 11.9222 12.7237 11.9222C12.7237 11.9222 12.7237 11.9222 12.7225 11.9222ZM12.7225 20.1098C10.353 20.1098 8.42567 18.1813 8.42567 15.8118V15.0535C8.42567 13.9043 8.8725 12.8252 9.6845 12.0143C10.4965 11.2023 11.5757 10.7555 12.7225 10.7555C12.7237 10.7555 12.7237 10.7555 12.7237 10.7555C15.0932 10.7555 17.0217 12.684 17.0217 15.0535V15.813C17.0205 18.1825 15.092 20.1098 12.7225 20.1098Z" fill="url(#paint6_linear_0_1)"/>
<path id="Fill 191" fill-rule="evenodd" clip-rule="evenodd" d="M46.7588 48.7596H45.5922L45.5933 27.4353H46.76L46.7588 48.7596Z" fill="url(#paint7_linear_0_1)"/>
<path id="Fill 192" fill-rule="evenodd" clip-rule="evenodd" d="M48.2242 36.8643H46.1767V35.6976H48.2242C48.6488 35.6976 48.993 35.3523 48.993 34.93L48.9942 25.571C48.9942 24.346 48.2125 23.2633 47.0505 22.8771C43.862 21.8201 40.3515 21.819 37.163 22.876L36.7955 21.7688C40.2197 20.6348 43.9927 20.6348 47.4168 21.77C49.0583 22.3148 50.1608 23.842 50.1608 25.571L50.1597 34.93C50.1597 35.9963 49.2917 36.8643 48.2242 36.8643Z" fill="url(#paint8_linear_0_1)"/>
<path id="Fill 193" fill-rule="evenodd" clip-rule="evenodd" d="M38.6167 48.7596H37.45L37.4512 27.4341H38.6178L38.6167 48.7596Z" fill="url(#paint9_linear_0_1)"/>
<path id="Fill 194" fill-rule="evenodd" clip-rule="evenodd" d="M42.6872 48.7596H41.5205L41.5217 36.2798H42.6883L42.6872 48.7596Z" fill="url(#paint10_linear_0_1)"/>
<path id="Fill 195" fill-rule="evenodd" clip-rule="evenodd" d="M9.23183 48.7562H8.06517L8.0675 27.4307H9.23417L9.23183 48.7562Z" fill="url(#paint11_linear_0_1)"/>
<path id="Fill 196" fill-rule="evenodd" clip-rule="evenodd" d="M13.3035 48.7561H12.1368L12.138 36.2775H13.3047L13.3035 48.7561Z" fill="url(#paint12_linear_0_1)"/>
<path id="Fill 197" fill-rule="evenodd" clip-rule="evenodd" d="M17.374 48.7573H16.2085L16.2097 27.4318H17.3763L17.374 48.7573Z" fill="url(#paint13_linear_0_1)"/>
<path id="Fill 198" fill-rule="evenodd" clip-rule="evenodd" d="M8.64967 36.8596H6.60217C5.53467 36.8596 4.66667 35.9916 4.66667 34.9253L4.66783 25.5675C4.66783 23.8373 5.77033 22.3101 7.41183 21.7665C10.836 20.629 14.6078 20.6301 18.0332 21.7676L17.6657 22.8748C14.4783 21.8155 10.9667 21.8155 7.77933 22.8736C6.61617 23.2598 5.8345 24.3413 5.8345 25.5675L5.83333 34.9253C5.83333 35.3488 6.1775 35.693 6.60217 35.693H8.64967V36.8596Z" fill="url(#paint14_linear_0_1)"/>
</g>
</g>
</g>
</g>
</g>
<defs>
<linearGradient id="paint0_linear_0_1" x1="32.6183" y1="2.78881" x2="13.4274" y2="12.6522" gradientUnits="userSpaceOnUse">
<stop stop-color="#FF52C1"/>
<stop offset="1" stop-color="#9952FF"/>
</linearGradient>
<linearGradient id="paint1_linear_0_1" x1="24.0502" y1="11.0957" x2="20.7534" y2="11.1858" gradientUnits="userSpaceOnUse">
<stop stop-color="#FF52C1"/>
<stop offset="1" stop-color="#9952FF"/>
</linearGradient>
<linearGradient id="paint2_linear_0_1" x1="32.1924" y1="11.0957" x2="28.8956" y2="11.1858" gradientUnits="userSpaceOnUse">
<stop stop-color="#FF52C1"/>
<stop offset="1" stop-color="#9952FF"/>
</linearGradient>
<linearGradient id="paint3_linear_0_1" x1="28.1194" y1="25.0279" x2="24.8297" y2="25.1705" gradientUnits="userSpaceOnUse">
<stop stop-color="#FF52C1"/>
<stop offset="1" stop-color="#9952FF"/>
</linearGradient>
<linearGradient id="paint4_linear_0_1" x1="37.1646" y1="9.16038" x2="2.70385" y2="28.6338" gradientUnits="userSpaceOnUse">
<stop stop-color="#FF52C1"/>
<stop offset="1" stop-color="#9952FF"/>
</linearGradient>
<linearGradient id="paint5_linear_0_1" x1="47.3101" y1="5.38177" x2="28.1202" y2="15.2458" gradientUnits="userSpaceOnUse">
<stop stop-color="#FF52C1"/>
<stop offset="1" stop-color="#9952FF"/>
</linearGradient>
<linearGradient id="paint6_linear_0_1" x1="17.9265" y1="5.37835" x2="-1.26347" y2="15.2424" gradientUnits="userSpaceOnUse">
<stop stop-color="#FF52C1"/>
<stop offset="1" stop-color="#9952FF"/>
</linearGradient>
<linearGradient id="paint7_linear_0_1" x1="46.8829" y1="15.1774" x2="43.5901" y2="15.2783" gradientUnits="userSpaceOnUse">
<stop stop-color="#FF52C1"/>
<stop offset="1" stop-color="#9952FF"/>
</linearGradient>
<linearGradient id="paint8_linear_0_1" x1="51.5676" y1="11.7523" x2="20.6444" y2="26.2506" gradientUnits="userSpaceOnUse">
<stop stop-color="#FF52C1"/>
<stop offset="1" stop-color="#9952FF"/>
</linearGradient>
<linearGradient id="paint9_linear_0_1" x1="38.7408" y1="15.1756" x2="35.4479" y2="15.2764" gradientUnits="userSpaceOnUse">
<stop stop-color="#FF52C1"/>
<stop offset="1" stop-color="#9952FF"/>
</linearGradient>
<linearGradient id="paint10_linear_0_1" x1="42.8113" y1="29.106" x2="39.5243" y2="29.2781" gradientUnits="userSpaceOnUse">
<stop stop-color="#FF52C1"/>
<stop offset="1" stop-color="#9952FF"/>
</linearGradient>
<linearGradient id="paint11_linear_0_1" x1="9.35721" y1="15.1721" x2="6.06107" y2="15.2732" gradientUnits="userSpaceOnUse">
<stop stop-color="#FF52C1"/>
<stop offset="1" stop-color="#9952FF"/>
</linearGradient>
<linearGradient id="paint12_linear_0_1" x1="13.4276" y1="29.1044" x2="10.1406" y2="29.2764" gradientUnits="userSpaceOnUse">
<stop stop-color="#FF52C1"/>
<stop offset="1" stop-color="#9952FF"/>
</linearGradient>
<linearGradient id="paint13_linear_0_1" x1="17.4993" y1="15.1732" x2="14.2064" y2="15.2741" gradientUnits="userSpaceOnUse">
<stop stop-color="#FF52C1"/>
<stop offset="1" stop-color="#9952FF"/>
</linearGradient>
<linearGradient id="paint14_linear_0_1" x1="19.4401" y1="11.7479" x2="-11.4847" y2="26.2483" gradientUnits="userSpaceOnUse">
<stop stop-color="#FF52C1"/>
<stop offset="1" stop-color="#9952FF"/>
</linearGradient>
<clipPath id="clip0_0_1">
<rect width="1440" height="5518" fill="white" transform="translate(-280 -1620)"/>
</clipPath>
</defs>
</svg>
