<svg width="32" height="32" viewBox="0 0 32 32" fill="none" xmlns="http://www.w3.org/2000/svg">
<g id="post-twitter">
<path id="Shape" fill-rule="evenodd" clip-rule="evenodd" d="M28.8 0H3.2C1.44 0 0 1.44 0 3.2V28.8C0 30.56 1.44 32 3.2 32H28.8C30.56 32 32 30.56 32 28.8V3.2C32 1.44 30.56 0 28.8 0ZM25.12 11.68C24.96 19.04 20.32 24.16 13.28 24.48C10.4 24.64 8.32 23.68 6.4 22.56C8.48 22.88 11.2 22.08 12.64 20.8C10.56 20.64 9.28 19.52 8.64 17.76C9.28 17.92 9.92 17.76 10.4 17.76C8.48 17.12 7.2 16 7.04 13.44C7.52 13.76 8.16 13.92 8.8 13.92C7.36 13.12 6.4 10.08 7.52 8.16C9.6 10.4 12.16 12.32 16.32 12.64C15.2 8.16 21.28 5.76 23.68 8.8C24.8 8.64 25.6 8.16 26.4 7.84C26.08 8.96 25.44 9.6 24.64 10.24C25.44 10.08 26.24 9.92 26.88 9.6C26.72 10.4 25.92 11.04 25.12 11.68Z" fill="white"/>
</g>
</svg>
